{
	"asset":{
		"generator":"Khronos glTF Blender I/O v4.0.44",
		"version":"2.0"
	},
	"scene":0,
	"scenes":[
		{
			"name":"Scene",
			"nodes":[
				0
			]
		}
	],
	"nodes":[
		{
			"mesh":0,
			"name":"\u5e73\u9762",
			"scale":[
				-0.5334955453872681,
				-0.8249443173408508,
				-0.5334955453872681
			]
		}
	],
	"meshes":[
		{
			"name":"\u5e73\u9762",
			"primitives":[
				{
					"attributes":{
						"COLOR_0":0,
						"POSITION":1,
						"NORMAL":2,
						"TEXCOORD_0":3
					},
					"indices":4
				}
			]
		}
	],
	"accessors":[
		{
			"bufferView":0,
			"componentType":5123,
			"count":183,
			"normalized":true,
			"type":"VEC4"
		},
		{
			"bufferView":1,
			"componentType":5126,
			"count":183,
			"max":[
				0.2533063590526581,
				0.11699312925338745,
				0.6237058043479919
			],
			"min":[
				-0.10000000149011612,
				-0.08417082577943802,
				-0.731189489364624
			],
			"type":"VEC3"
		},
		{
			"bufferView":2,
			"componentType":5126,
			"count":183,
			"type":"VEC3"
		},
		{
			"bufferView":3,
			"componentType":5126,
			"count":183,
			"type":"VEC2"
		},
		{
			"bufferView":4,
			"componentType":5123,
			"count":306,
			"type":"SCALAR"
		}
	],
	"bufferViews":[
		{
			"buffer":0,
			"byteLength":1464,
			"byteOffset":0,
			"target":34962
		},
		{
			"buffer":0,
			"byteLength":2196,
			"byteOffset":1464,
			"target":34962
		},
		{
			"buffer":0,
			"byteLength":2196,
			"byteOffset":3660,
			"target":34962
		},
		{
			"buffer":0,
			"byteLength":1464,
			"byteOffset":5856,
			"target":34962
		},
		{
			"buffer":0,
			"byteLength":612,
			"byteOffset":7320,
			"target":34963
		}
	],
	"buffers":[
		{
			"byteLength":7932,
			"uri":"simpRocks.bin"
		}
	]
}
